<svg width="155" height="138" viewBox="0 0 155 138" xmlns="http://www.w3.org/2000/svg" xmlns:xlink="http://www.w3.org/1999/xlink"><svg preserveAspectRatio="xMidYMid" width="36" height="20" viewBox="0 0 36 20" id="arrow-down" xmlns="http://www.w3.org/2000/svg"><defs><style>.acls-1{fill:#fff;fill-rule:evenodd}</style></defs><path d="M35.621 2.206L19.106 19.152c-.079.082-.176.128-.268.183-.054.095-.099.195-.178.276a1.24 1.24 0 0 1-1.786 0L.359 2.663a1.32 1.32 0 0 1 0-1.832 1.239 1.239 0 0 1 1.786 0l15.622 16.031L33.836.374a1.238 1.238 0 0 1 1.785 0 1.32 1.32 0 0 1 0 1.832z" class="acls-1"/></svg><svg preserveAspectRatio="xMidYMid" width="10" height="10" viewBox="0 0 10 10" id="arrow-drop" x="36" y="20" xmlns="http://www.w3.org/2000/svg"><defs><style>.bcls-1{fill:#c2c2c2;fill-rule:evenodd}</style></defs><path d="M4.996 9.99L-.009.006h10.011L4.996 9.99z" class="bcls-1"/></svg><svg viewBox="0 0 21.9 21.9" width="20" height="20" id="close-menu" x="46" y="30" xmlns="http://www.w3.org/2000/svg"><path d="M14.1 11.3c-.2-.2-.2-.5 0-.7l7.5-7.5c.2-.2.3-.5.3-.7s-.1-.5-.3-.7L20.2.3c-.2-.2-.5-.3-.7-.3-.3 0-.5.1-.7.3l-7.5 7.5c-.2.2-.5.2-.7 0L3.1.3C2.9.1 2.6 0 2.4 0s-.5.1-.7.3L.3 1.7c-.2.2-.3.5-.3.7s.1.5.3.7l7.5 7.5c.2.2.2.5 0 .7L.3 18.8c-.2.2-.3.5-.3.7s.1.5.3.7l1.4 1.4c.2.2.5.3.7.3s.5-.1.7-.3l7.5-7.5c.2-.2.5-.2.7 0l7.5 7.5c.2.2.5.3.7.3s.5-.1.7-.3l1.4-1.4c.2-.2.3-.5.3-.7s-.1-.5-.3-.7l-7.5-7.5z" fill="#1b2a39"/></svg><svg preserveAspectRatio="xMidYMid" width="38.18" height="37.47" viewBox="0 0 38.18 37.47" id="close-popup" x="66" y="50" xmlns="http://www.w3.org/2000/svg"><defs><style>.dcls-1{fill:#000;fill-rule:evenodd}</style></defs><path d="M38.182 1.409L20.504 19.087l16.971 16.971-1.414 1.414L19.09 20.501 2.119 37.472.705 36.058l16.971-16.971L-.002 1.409 1.412-.005 19.09 17.673 36.768-.005l1.414 1.414z" class="dcls-1"/></svg><svg viewBox="0 0 24 24" width="25" height="25" id="menu" x="105" y="88" xmlns="http://www.w3.org/2000/svg"><path d="M24 3c0-.6-.4-1-1-1H1c-.6 0-1 .4-1 1v2c0 .6.4 1 1 1h22c.6 0 1-.4 1-1V3zm0 8c0-.6-.4-1-1-1H1c-.6 0-1 .4-1 1v2c0 .6.4 1 1 1h22c.6 0 1-.4 1-1v-2zm0 8c0-.6-.4-1-1-1H1c-.6 0-1 .4-1 1v2c0 .6.4 1 1 1h22c.6 0 1-.4 1-1v-2z" fill="#fff"/></svg><svg viewBox="0 0 24 24" width="25" height="25" id="menu-dark" x="130" y="113" xmlns="http://www.w3.org/2000/svg"><path d="M24 3c0-.6-.4-1-1-1H1c-.6 0-1 .4-1 1v2c0 .6.4 1 1 1h22c.6 0 1-.4 1-1V3zm0 8c0-.6-.4-1-1-1H1c-.6 0-1 .4-1 1v2c0 .6.4 1 1 1h22c.6 0 1-.4 1-1v-2zm0 8c0-.6-.4-1-1-1H1c-.6 0-1 .4-1 1v2c0 .6.4 1 1 1h22c.6 0 1-.4 1-1v-2z" fill="#1b2a39"/></svg></svg>